<svg xmlns="http://www.w3.org/2000/svg" width="256" height="256"><path fill-opacity=".475" d="M0 128.004v128.004l128.25-.254 128.25-.254.254-127.75L257.008 0H0v128.004m.485.496c0 70.4.119 99.053.265 63.672.146-35.38.146-92.98 0-128C.604 29.153.485 58.1.485 128.5" fill="#1976D2" fill-rule="evenodd"/><path fill-opacity=".066" d="M0 22.24v22.24l2.5-2.697c1.375-1.482 2.515-3.053 2.533-3.489C5.074 37.318 8.611 33 9.37 33c.302 0 .701 3.712.886 8.25.202 4.955.418 2.19.54-6.923.198-14.725.281-15.265 2.793-18.25 2.499-2.97 2.872-3.078 10.75-3.092 4.669-.009 7.605-.368 6.862-.84-.946-.599-.061-1.838 3.25-4.551C36.953 5.544 39 4.19 39 4.586c0 .396.788-.178 1.75-1.276.962-1.099 2.425-2.257 3.25-2.575.825-.317-8.737-.613-21.25-.656L0 0v22.24M213.515 2.088c2.192 1.149 4.485 2.724 5.095 3.5.611.777 1.623 1.412 2.25 1.412s1.14.45 1.14 1 .627 1 1.393 1c1.754 0 2.976 2.935 1.326 3.183-.671.101 2.381.469 6.781.817 5.723.453 2.112.685-12.685.817-11.377.1-21.839.622-23.25 1.158-3.24 1.232-3.646 6.376-.631 7.99 1.123.601 9.304 1.035 19.5 1.035H232v206.981H23V24h18.5c17.167 0 18.644-.144 20.5-2 2.506-2.506 2.506-3.494 0-6-1.878-1.878-3.333-2-23.927-2H16.145l-2.081 2.646-2.081 2.646.258 109.758c.143 60.368-.079 109.551-.491 109.296-.413-.255-.843-7.525-.956-16.155-.131-10.009-.327-12.485-.54-6.839l-.335 8.853-2.515-2.714c-1.383-1.492-2.268-2.961-1.966-3.263.302-.302-.38-1.2-1.516-1.995-1.136-.796-2.455-2.411-2.93-3.59-.527-1.304-.89 6.761-.929 20.607L0 256h22c12.1 0 22-.213 22-.474s-1.237-1.132-2.75-1.935c-1.512-.803-3.968-2.615-5.456-4.026-1.489-1.411-3.121-2.565-3.628-2.565-.507 0-1.445-.631-2.085-1.403-.894-1.077-.865-1.523.127-1.921.711-.285-1.858-.57-5.708-.632-4.355-.072-7.945-.694-9.5-1.649-1.375-.843-1.6-1.165-.5-.714 1.1.45 52.4.941 114 1.089l112 .271 1.75-2.131c.963-1.173 1.75-1.701 1.75-1.176 0 .526-.823 1.701-1.829 2.611-1.374 1.244-3.921 1.68-10.25 1.755-5.75.068-7.628.353-5.921.9 1.375.44 1.934.845 1.241.9-.692.055-2.66 1.338-4.373 2.85-1.714 1.512-3.51 2.637-3.992 2.5-.482-.138-.912.537-.955 1.5-.052 1.157-.258 1.302-.607.43-.383-.96-.926-.751-1.989.767-.804 1.147-1.85 1.847-2.324 1.553-.475-.293-1.151-.067-1.503.503-.435.705 6.639.949 22.181.766l22.821-.269.256-23c.247-22.218.196-22.911-1.5-20.386-.966 1.438-3.182 4.493-4.925 6.789-2.554 3.364-3.26 3.827-3.634 2.386-.256-.984-.524 1.586-.596 5.711-.073 4.125-.462 8.02-.866 8.655-.404.635-.617-47.586-.472-107.158l.263-108.312-2.626-3.343-2.627-3.342 3.113 3.266c2.969 3.113 3.12 3.674 3.25 12 .075 4.804.337 7.682.581 6.397.415-2.178.66-2.041 3.594 2 5.986 8.243 5.689 9.032 5.689-15.092V0h-46.47l3.985 2.088M67.763 24.511c-3.422 1.925-4.561 5.977-2.641 9.398 1.036 1.845 3.147 3.06 7.654 4.406C78.142 39.917 79 40.501 79 42.552c0 5.011-9.018 5.698-11.225.854C67.172 42.083 65.851 41 64.839 41c-2.233 0-2.312 1.185-.333 5.011 3.388 6.552 15.015 6.158 18.246-.618 1.544-3.236 1.523-3.549-.401-6.151-1.276-1.725-4.19-3.484-7.856-4.742-6.123-2.101-7.484-3.603-5.467-6.034 2.38-2.867 9.972-.884 9.972 2.605 0 .511.9.929 2 .929 2.639 0 2.535-2.266-.252-5.506-2.817-3.275-9.006-4.221-12.985-1.983M24.195 27.5c.02 1.65.244 2.204.498 1.231.254-.973.237-2.323-.037-3-.274-.677-.481.119-.461 1.769m87.813 3.474c-.82.518-2.508.688-3.75.376-2.227-.559-2.258-.434-2.258 9.042 0 8.941.139 9.608 2 9.608 1.804 0 2-.667 2-6.8 0-7.028.991-9.2 4.2-9.2 1.583 0 1.8.963 1.8 8 0 7.333.167 8 2 8 1.755 0 2-.667 2-5.435 0-7.436 1.375-10.793 4.252-10.384 2.08.295 2.27.898 2.54 8.069.261 6.928.5 7.75 2.25 7.75 1.781 0 1.958-.724 1.958-8 0-6.667-.333-8.333-2-10-2.348-2.348-4.868-2.548-7.532-.6-1.642 1.2-2.201 1.2-3.914 0-2.332-1.633-3.495-1.723-5.546-.426m28.676-.325c-.356.357-1.783.694-3.171.75-1.387.055-2.52.438-2.517.851.002.413.004 4.608.004 9.323 0 7.625.194 8.537 1.75 8.241 1.425-.271 1.843-1.723 2.25-7.823.48-7.19.6-7.491 3-7.491 2.426 0 2.509.228 2.792 7.75.261 6.928.5 7.75 2.25 7.75 1.752 0 1.958-.715 1.958-6.8 0-6.963.995-9.2 4.093-9.2 2.295 0 2.907 2.016 2.907 9.582 0 5.751.208 6.418 2 6.418 1.823 0 2-.667 2-7.545 0-6.678-.282-7.828-2.455-10-2.806-2.806-4.364-3.039-7.077-1.055-1.642 1.2-2.201 1.2-3.914 0-2.12-1.485-4.794-1.827-5.87-.751m26.426.747c-7.007 3.883-6.524 15.533.769 18.554 4.297 1.78 11.121-.98 11.121-4.498 0-2.184-2.912-2.485-4.02-.415-1.426 2.664-5.483 2.508-7.45-.287l-1.583-2.25 6.777-.5c6.514-.481 6.766-.597 6.524-3-.379-3.75-2.181-6.648-4.905-7.89-3.084-1.405-4.267-1.358-7.233.286m20.473-.53c-.294.476-1.671.649-3.059.383L182 30.767v9.616c0 8.95.139 9.617 2 9.617 1.744 0 2.002-.671 2.014-5.25.019-7.568.802-9.75 3.496-9.75 2.599 0 4.204-2.93 2.274-4.155-1.685-1.069-3.533-1.06-4.201.021M87 39.378c0 9.424.896 10.97 6.277 10.824 1.773-.048 4.46-.106 5.973-.129l2.75-.041v-9.516c0-8.778-.152-9.516-1.956-9.516-1.732 0-1.99.82-2.25 7.145-.308 7.492-1.737 9.858-5.158 8.546-1.314-.505-1.636-2.109-1.636-8.16C91 31.667 90.823 31 89 31c-1.841 0-2 .667-2 8.378m81.25-4.716c-.687.278-1.25 1.142-1.25 1.921 0 .986 1.216 1.417 4 1.417 4.135 0 4.867-.733 2.8-2.8-1.229-1.229-3.332-1.433-5.55-.538M67.75 59.574c-.412.418-.75 6.534-.75 13.593V86h2.5c2.348 0 2.5-.319 2.507-5.25l.007-5.25 5.243-.238c4.206-.191 5.688-.746 7.493-2.806 2.746-3.134 2.892-7.441.359-10.57-1.609-1.986-2.994-2.391-9.25-2.703-4.048-.202-7.697-.026-8.109.391m53.025-.016c-.958.959.394 4.442 1.725 4.442s2.683-3.483 1.725-4.442c-.719-.719-2.731-.719-3.45 0M166.2 61.2c-.66.66-1.2 2.01-1.2 3 0 .99-.45 1.8-1 1.8s-1 .9-1 2 .45 2 1 2c.569 0 1 2.933 1 6.8 0 7.298.972 9.2 4.7 9.2 1.633 0 2.3-.58 2.3-2 0-1.111-.667-2-1.5-2-1.167 0-1.5-1.333-1.5-6s.333-6 1.5-6c.833 0 1.5-.889 1.5-2s-.667-2-1.5-2c-1 0-1.5-1-1.5-3 0-3.196-.855-3.745-2.8-1.8m-94.201 6.05v4.25l5.006-.347c4.406-.305 5.082-.653 5.648-2.905.831-3.311-1.696-5.248-6.844-5.248H72l-.001 4.25M90 76.109c0 9.224.135 9.891 2 9.891 1.801 0 2.002-.672 2.015-6.75.017-7.546.813-9.556 3.591-9.077 1.336.231 1.894-.262 1.894-1.673 0-1.699-.714-2.021-4.75-2.141L90 66.217v9.892m13.382-7.761c-2.277 1.959-2.742 3.187-2.806 7.418-.061 4.054.41 5.588 2.348 7.652 4.572 4.869 13.032 2.59 14.674-3.952 2.448-9.756-7.109-17.231-14.216-11.118m17.604 7.402c-.015 11.018-.606 14.25-2.603 14.25-.76 0-1.383.675-1.383 1.5 0 2.081 5.59 2.01 6.393-.082.334-.87.607-6.945.607-13.5 0-9.927-.251-11.918-1.5-11.918-1.23 0-1.502 1.756-1.514 9.75m9.32-7.337c-2.38 2.047-2.806 3.175-2.806 7.42 0 6.586 3.055 10.167 8.674 10.167 4.016 0 7.826-2.677 7.826-5.5 0-2.184-3.309-1.837-4.768.5-1.65 2.643-4.74 2.54-6.675-.223-.856-1.222-1.557-2.572-1.557-3 0-.427 3.198-.777 7.107-.777 6.07 0 7.018-.231 6.5-1.582-.334-.87-.607-2.24-.607-3.045 0-.805-1.105-2.568-2.455-3.918-3.178-3.179-7.573-3.195-11.239-.042m19.993-.91c-2.736 1.917-4.584 7.465-3.712 11.146 1.745 7.365 10.112 10.091 14.367 4.682 1.155-1.468 1.938-3.156 1.74-3.75-.709-2.13-3.359-1.612-4.494.88-1.296 2.844-4.293 3.337-6.214 1.022-1.964-2.367-1.597-9.563.569-11.147 2.442-1.785 3.159-1.693 5.177.664 2.178 2.543 4.268 2.571 4.268.057 0-4.266-7.452-6.53-11.701-3.554m26.101-.738c-.605.404-1.65 1.778-2.321 3.052-1.668 3.166.732 6.769 5.137 7.712 4.545.972 6.123 2.357 4.674 4.104-1.65 1.987-4.681 1.674-6.122-.633-1.459-2.337-4.768-2.684-4.768-.5 0 .825.925 2.425 2.055 3.555 3.03 3.03 9.561 2.365 12.248-1.248 1.867-2.511 1.894-2.857.399-5.139-.882-1.346-3.506-3.06-5.831-3.808-2.325-.748-4.391-1.865-4.59-2.483-.562-1.739 3.412-2.328 5.423-.803C184.816 72.176 188 72.432 188 71c0-.55-.9-1.9-2-3-2-2-7.412-2.696-9.6-1.235m-69.936 3.638c-1.334.975-1.919 2.613-1.919 5.373 0 6.71 4.643 9.65 7.898 5.001 2.145-3.062 1.95-7.384-.443-9.777-2.375-2.375-3.011-2.444-5.536-.597m27.775-.737c-.694.28-1.723 1.369-2.286 2.421-.938 1.753-.645 1.913 3.512 1.913 3.316 0 4.535-.394 4.535-1.465 0-1.208-3.061-3.737-4.184-3.456-.174.043-.884.308-1.577.587m10.755 40.268c-4.336 1.319-8.389 3.767-11.494 6.942l-3 3.068-16.072.028c-18.564.032-22.907 1.057-29.656 6.998-10.141 8.926-12.457 18.891-8.843 38.05 2.176 11.538 9.014 39.101 10.972 44.23L87.95 212H118v-11l4.75-.002 4.75-.002V211.5l15.059.275 15.06.275 1.617-5.275c.889-2.901 2.994-9.806 4.677-15.345l3.062-10.07 7.533-2.363 7.534-2.362-.271-19.068-.271-19.067-5.826-.106c-5.704-.104-5.947-.227-11.658-5.878l-5.832-5.772 1.419-4.778c2.912-9.805-3.789-15.323-14.609-12.032m-2.864 14.61c-1.663 1.399-3.302 3.424-3.644 4.5-.584 1.841-1.63 1.956-17.803 1.962-23.119.007-28.439 1.674-32.833 10.289-1.797 3.522-2.028 5.304-1.579 12.166.509 7.754 3.55 22.611 7.94 38.789l2.103 7.75H106v-11h33v11.105l5.115-.303 5.115-.302 4.15-13.448 4.149-13.448 6.236-1.995 6.235-1.994v-9.308c0-9.008-.073-9.307-2.269-9.307-1.54 0-5.408-3.151-12.042-9.81l-9.773-9.81.67-4.19c.789-4.934-.141-5.277-4.456-1.646M106.2 141.75l.3 5.75h27l.3-5.75.3-5.75h-28.2l.3 5.75m39 6.45c-1.699 1.699-1.488 6.369.371 8.229 3.338 3.337 9.429.633 9.429-4.186 0-4.351-6.72-7.123-9.8-4.043M.429 233.5c0 12.65.144 17.687.318 11.194.175-6.494.174-16.844-.001-23-.175-6.157-.318-.844-.317 11.806" fill="#1976D2" fill-rule="evenodd"/><path fill-opacity=".488" d="M13.522 17.958c-1.375 2.658-1.519 15.175-1.285 111.599.257 106.194.306 108.636 2.204 110.024C16.09 240.786 33.262 241 128.569 241c103.13 0 112.297-.133 113.559-1.653 1.141-1.375 1.416-20.027 1.635-110.672l.263-109.018-2.187-2.329c-2.163-2.301-2.44-2.328-24.313-2.328-22.857 0-24.526.282-24.526 4.143 0 4.101 3.457 4.857 22.223 4.857H233v207H23V24h17.777c19.873 0 22.622-.73 22.03-5.847L62.5 15.5l-23.715-.268-23.715-.268-1.548 2.994m56.748 5.771c-2.354.427-6.27 4.672-6.27 6.795 0 2.654 3.91 5.874 9.573 7.883 6.26 2.221 7.663 4.214 4.906 6.972C75.387 48.471 67 46.272 67 42.37c0-.915-.695-1.374-1.75-1.157-2.415.496-1.738 3.756 1.357 6.537 3.562 3.2 11.184 3.166 14.219-.064 2.634-2.804 2.846-7.776.424-9.94-.963-.86-3.976-2.207-6.697-2.994-5.726-1.656-7.618-3.764-5.581-6.219 2.044-2.462 8.249-1.669 9.515 1.217 1.727 3.935 4.973 2.586 3.452-1.435-1.257-3.325-6.744-5.481-11.669-4.586M87 38.845c0 6.33.353 8.165 1.829 9.5 2.131 1.929 7.238 2.188 8.971.455.933-.933 1.2-.933 1.2 0 0 .66.675 1.2 1.5 1.2 1.229 0 1.5-1.73 1.5-9.573 0-8.578-.182-9.539-1.75-9.241-1.425.271-1.843 1.723-2.25 7.823-.46 6.886-.686 7.517-2.805 7.818-4.024.57-5.195-1.447-5.195-8.949C90 32.431 89.688 31 88.5 31c-1.206 0-1.5 1.538-1.5 7.845m19 1.728c0 8.578.182 9.539 1.75 9.241 1.425-.271 1.843-1.723 2.25-7.823l.5-7.491h6l.292 7.75c.221 5.875.634 7.75 1.706 7.75 1.06 0 1.488-1.792 1.708-7.145.308-7.492 1.737-9.858 5.158-8.546 1.314.505 1.636 2.109 1.636 8.16 0 6.864.177 7.531 2 7.531 1.817 0 2-.667 2-7.277C131 34.22 129.391 31 125.143 31c-1.509 0-3.283.54-3.943 1.2-.933.933-1.467.933-2.4 0-.66-.66-2.595-1.2-4.3-1.2-1.705 0-3.64.54-4.3 1.2-.933.933-1.2.933-1.2 0 0-.66-.675-1.2-1.5-1.2-1.229 0-1.5 1.73-1.5 9.573m29-.073c0 7.778.272 9.5 1.5 9.5 1.168 0 1.5-1.341 1.5-6.066 0-7.253 1.213-9.934 4.493-9.934 2.33 0 2.434.297 2.715 7.739.243 6.438.586 7.796 2.042 8.073 1.527.292 1.752-.534 1.765-6.489.018-7.894.793-9.628 4.098-9.16 2.252.318 2.404.777 2.679 8.087.226 5.989.623 7.75 1.75 7.75 1.16 0 1.458-1.695 1.458-8.3 0-5.122-.459-8.759-1.2-9.5-1.497-1.497-5.282-1.548-7.973-.107-1.477.79-2.344.79-3.134 0-1.457-1.457-5.994-1.392-7.493.107-.933.933-1.2.933-1.2 0 0-.66-.675-1.2-1.5-1.2-1.228 0-1.5 1.722-1.5 9.5m30.174-7.186c-3.152 3.356-3.073 11.493.14 14.512 3.025 2.841 8.931 2.929 11.686.174 1.1-1.1 2-2.45 2-3 0-1.587-3.725-1.16-4.362.5-.858 2.237-6.341 1.924-7.603-.434C165.129 41.505 165.808 41 172.5 41c6.168 0 6.5-.121 6.5-2.365 0-1.301-.933-3.551-2.073-5-2.768-3.52-8.598-3.679-11.753-.321M183 40.627c0 7.665.273 9.373 1.5 9.373 1.188 0 1.5-1.431 1.5-6.878 0-6.927 1.199-9.542 4.085-8.907.713.157 1.465-.487 1.672-1.43.315-1.434-.372-1.7-4.19-1.623l-4.567.092v9.373m-15.965-4.693c-1.556 2.908-1.387 3.066 3.298 3.066 5.085 0 5.955-.593 4.597-3.131-1.364-2.548-6.519-2.505-7.895.065M68 73c0 10.889.244 13 1.5 13 1.152 0 1.5-1.278 1.5-5.5V75h5.389c6.276 0 9.304-1.937 10.186-6.516.424-2.198-.001-3.756-1.569-5.75C83.007 60.194 82.329 60 75.427 60H68v13m53-11c0 1.111.667 2 1.5 2s1.5-.889 1.5-2-.667-2-1.5-2-1.5.889-1.5 2m44.667-.333c-.367.366-.667 1.679-.667 2.916 0 1.238-.562 2.479-1.25 2.758-.912.37-.945.73-.12 1.333.621.454 1.312 4.115 1.536 8.135.415 7.467 1.343 9.143 5.084 9.176 2.137.018 2.329-2.549.25-3.347-1.121-.43-1.5-2.223-1.5-7.107 0-5.139.32-6.531 1.5-6.531.825 0 1.5-.45 1.5-1s-.675-1-1.5-1c-1 0-1.5-1-1.5-3 0-2.821-1.674-3.993-3.333-2.333M71 67.5V72h4.066C80.285 72 83 70.517 83 67.665 83 64.237 81.091 63 75.8 63H71v4.5m24.139-.607c-.748.474-2.228.635-3.289.358-1.818-.476-1.912.033-1.639 8.872.232 7.54.583 9.377 1.789 9.377 1.155 0 1.615-1.721 2-7.491.434-6.496.765-7.537 2.5-7.847 3.037-.541 4.242-2.082 2.492-3.188-1.832-1.158-2.143-1.165-3.853-.081m10.361.262c-3.419 1.87-4.5 4.052-4.5 9.082 0 3.82.523 5.377 2.455 7.308 4.748 4.749 12.671 1.927 13.966-4.975 1.548-8.254-5.449-14.955-11.921-11.415m26.263.41c-4.765 2.585-5.517 11.772-1.308 15.98 3.212 3.213 7.589 3.202 11.239-.027 2.373-2.099 2.575-2.638 1.306-3.494-1.12-.756-1.848-.507-2.872.982-1.643 2.389-5.382 2.598-7.557.423C129.306 78.163 130.599 77 137.5 77c5.781 0 6.5-.216 6.5-1.953 0-3.23-2.07-6.758-4.657-7.937-3.128-1.425-4.238-1.358-7.58.455m19.737-.41c-3.419 1.87-4.5 4.052-4.5 9.082 0 5.919 3.132 9.763 7.955 9.763 3.234 0 7.045-2.975 7.045-5.5 0-2.154-2.301-1.848-3.768.5-2.648 4.24-8.232 1.291-8.232-4.349 0-6.35 5.456-10.096 8.232-5.651 1.444 2.312 3.768 2.666 3.768.573 0-1.785-4.718-5.583-6.885-5.543-.888.017-2.515.523-3.615 1.125m24.723.402c-2.256 1.579-2.873 4.87-1.362 7.253.457.721 2.813 1.895 5.235 2.61 3.193.943 4.404 1.82 4.404 3.19 0 2.831-5.381 3.193-7.432.5-.988-1.296-2.042-1.761-2.848-1.256-.988.618-.801 1.41.823 3.473 3.926 4.991 12.957 2.65 12.957-3.358 0-3.077-2.459-4.958-8.316-6.364-1.94-.466-2.716-1.21-2.492-2.391.434-2.288 5.601-2.917 6.421-.781.755 1.968 3.387 2.064 3.387.124 0-1.859-3.849-4.557-6.5-4.557-1.13 0-3.055.701-4.277 1.557M121 77.965c0 9.941-.187 11.065-2 12.035-2.688 1.439-2.532 3 .3 3 4.144 0 4.7-1.679 4.7-14.2 0-9.822-.251-11.8-1.5-11.8-1.242 0-1.5 1.885-1.5 10.965m-15.443-6.742c-4.439 6.336 1.669 15.408 6.872 10.206 2.189-2.19 2.034-8.7-.258-10.774-2.506-2.268-4.764-2.075-6.614.568m27.138-.438C130.136 73.612 130.55 74 136.122 74c5.085 0 5.111-.016 3.635-2.25-1.926-2.916-4.926-3.326-7.062-.965M146.5 109.93c-4.933 1.194-10.038 3.978-13.044 7.116l-2.83 2.954h-15.132c-21.681 0-29.387 2.924-36.365 13.799-7.128 11.109-6.424 20.797 4.579 62.951L87.427 211H117v-10h11v10h29.683l4.435-14.75 4.435-14.75 7.473-2.616 7.474-2.616.272-18.634.272-18.634h-11.602l-6.351-6.408c-6.205-6.261-6.325-6.482-5.221-9.649 2.203-6.319 1.094-10.304-3.554-12.78-2.4-1.278-4.289-1.328-8.816-.233m-2.895 12.992c-1.592 1.049-3.774 3.296-4.848 4.993L136.804 131l-18.152.022c-20.306.025-23.859.87-28.917 6.881-5.964 7.088-5.518 16.171 2.332 47.515C95.89 200.679 95.47 200 101.078 200H106v-10h33v10h10.609l3.936-13.466 3.937-13.466 6.509-2.284 6.509-2.284.288-9.25.287-9.25h-2.807c-2.214 0-4.789-1.989-12.174-9.406l-9.367-9.405.49-5.095c.269-2.802.218-5.091-.114-5.087-.332.003-1.906.865-3.498 1.915m-36.911 13.717c-.382.382-.694 2.869-.694 5.528V147h28.105l-.303-5.25-.302-5.25-13.056-.278c-7.18-.152-13.368.035-13.75.417m38.961 12.19c-2.231 2.465-2.085 5.472.375 7.698 4.553 4.121 11.618-2.944 7.497-7.497-2.283-2.523-5.692-2.61-7.872-.201" fill="#1976D2" fill-rule="evenodd"/><path fill-opacity=".969" d="M14.557 17.223C13.171 19.201 13 31.431 13 128.666v109.221l2.223 1.556C17.202 240.83 29.678 241 129.274 241h111.828l1.449-3.468c1.235-2.955 1.449-19.281 1.449-110.365 0-106.631-.005-106.904-2.073-109.532L239.855 15h-21.856c-18.536 0-22.095.239-23.428 1.571-1.859 1.86-1.875 1.993-.536 4.495.968 1.808 2.274 1.934 20 1.934H233v208H22V23h18.566C59.548 23 63 22.41 63 19.165 63 15.277 61.36 15 38.357 15c-21.852 0-22.271.039-23.8 2.223M67 26c-2.308 2.308-2.643 7.222-.606 8.912.767.636 3.761 1.929 6.654 2.872 5.958 1.944 8.052 4.242 6.346 6.966C77.233 48.199 67 47.138 67 43.465c0-.806-.675-1.465-1.5-1.465-2.115 0-1.863 2.637.475 4.975 6.533 6.533 19.267 1.392 16.485-6.657-.801-2.315-2.105-3.183-7.315-4.867-7.456-2.409-9.151-4.445-6.177-7.419 2.718-2.718 5.593-2.562 8.623.468 1.375 1.375 2.929 2.5 3.454 2.5 1.889 0 .902-2.897-1.68-4.927C75.886 23.336 69.701 23.299 67 26m20.353 6.521c-.321.837-.394 4.491-.163 8.121.317 4.987.881 6.937 2.306 7.979 2.524 1.845 5.447 1.74 7.675-.276 1.702-1.54 1.829-1.54 1.829 0 0 .91.45 1.655 1 1.655.596 0 1-3.833 1-9.5s-.404-9.5-1-9.5c-.564 0-1 2.833-1 6.5 0 5.167-.41 6.91-2 8.5-4.524 4.524-7 1.801-7-7.7 0-6.858-1.215-9.51-2.647-5.779M107 40.5c0 5.667.404 9.5 1 9.5.562 0 1-2.796 1-6.389 0-4.842.469-6.961 1.937-8.75 1.575-1.92 2.277-2.155 3.75-1.258 1.401.852 1.927 2.785 2.313 8.5.275 4.068.95 7.397 1.5 7.397s1.133-3.281 1.295-7.292c.267-6.609.521-7.395 2.72-8.397 4.137-1.885 5.485.28 5.485 8.811 0 4.252.424 7.378 1 7.378 1.467 0 1.284-16.316-.2-17.8-1.633-1.633-4.914-1.509-7.47.282-1.869 1.308-2.259 1.308-3.345 0-1.501-1.808-5.111-1.929-6.91-.232-1.06 1-1.417 1-1.783 0-1.333-3.635-2.292-.182-2.292 8.25m28.509-8.384c-.961 2.503-.112 17.384.991 17.384.55 0 1.117-2.475 1.259-5.5.37-7.849.975-9.781 3.291-10.516 3.699-1.174 4.95 1.137 4.95 9.138 0 4.252.424 7.378 1 7.378.562 0 1-2.796 1-6.389 0-7.523 2.158-11.331 5.771-10.184 1.911.607 2.179 1.518 2.438 8.297.19 4.985.723 7.758 1.541 8.029 2.009.665 1.713-15.147-.321-17.182-2-1.999-5.809-2.023-7.45-.046-1.134 1.367-1.441 1.367-2.951 0-1.992-1.803-4.38-1.942-7.221-.422-1.576.844-2.254.791-2.88-.222-.657-1.062-.938-1.015-1.418.235m30.473.698c-1.621 1.312-2.376 3.226-2.731 6.925-.433 4.508-.187 5.416 2.083 7.686 1.551 1.55 3.698 2.575 5.398 2.575 3.302 0 7.268-2.487 7.268-4.557 0-2.012-1.251-1.799-3.268.557-.942 1.1-2.547 2-3.567 2-2.239 0-5.165-3.019-5.165-5.329 0-1.39 1.093-1.671 6.5-1.671 3.575 0 6.5-.383 6.5-.851 0-2.39-2.433-7.31-4.039-8.17-2.819-1.509-6.509-1.166-8.979.835M183 40.5c0 5.667.404 9.5 1 9.5.55 0 1.053-2.138 1.118-4.75.21-8.415 1.069-10.713 4.137-11.066 2.993-.345 3.654-1.898 1.208-2.837-.846-.324-2.421.21-3.5 1.187-1.778 1.608-1.963 1.62-1.963.121 0-.91-.45-1.655-1-1.655-.596 0-1 3.833-1 9.5m-15.345-5.671C164.814 37.968 165.641 39 171 39c5.445 0 6.45-1.377 3.171-4.345-2.377-2.151-4.462-2.095-6.516.174M68 72.5c0 10.444.247 12.5 1.5 12.5 1.128 0 1.5-1.208 1.5-4.876v-4.876l5.485-.455C83.409 74.219 86 72.07 86 66.902 86 61.595 83.407 60 74.777 60H68v12.5m53-11c0 .825.675 1.5 1.5 1.5s1.5-.675 1.5-1.5-.675-1.5-1.5-1.5-1.5.675-1.5 1.5m45.75.071c-.412.419-.75 1.775-.75 3.012 0 1.238-.562 2.479-1.25 2.758-.966.392-.977.701-.048 1.362.7.498 1.326 3.976 1.5 8.326l.298 7.471 3 .251 3 .25-2.25-1.622c-1.929-1.391-2.25-2.534-2.25-8.001 0-5.003.323-6.378 1.5-6.378.825 0 1.5-.45 1.5-1s-.646-1-1.437-1c-.872 0-1.559-1.217-1.75-3.096-.172-1.702-.651-2.752-1.063-2.333m-95.083 1.096c-.367.366-.667 2.616-.667 5V72h4.943c5.469 0 8.295-2.374 7.31-6.141-.785-3-9.404-5.375-11.586-3.192M91 76c0 5.333.407 9 1 9 .551 0 1-2.592 1-5.777 0-6.116 2.135-10.769 4.521-9.853.722.277 1.562-.143 1.865-.933.691-1.802-3.433-1.99-5.186-.237-.933.933-1.2.933-1.2 0 0-.66-.45-1.2-1-1.2-.593 0-1 3.667-1 9m12.57-7.078c-2.591 2.864-3.193 9.478-1.147 12.602 3.291 5.021 11.021 5.251 13.615.405 1.684-3.146 1.113-9.468-1.111-12.294-2.602-3.309-8.663-3.689-11.357-.713M121 78.5c0 9.556-.254 11.5-1.5 11.5-.825 0-1.5.675-1.5 1.5 0 1.697 1.771 1.929 4 .523 1.165-.735 1.575-3.637 1.834-12.985.29-10.457.126-12.038-1.25-12.038-1.353 0-1.584 1.674-1.584 11.5m9.073-8.865c-3.981 5.061-2.087 13.545 3.43 15.366 3.689 1.217 8.186-.026 9.146-2.529 1.001-2.609-.334-2.765-3.518-.411-2.884 2.133-3.146 2.159-5.579.565-1.403-.92-2.552-2.562-2.552-3.649 0-1.77.692-1.977 6.625-1.977h6.625l-.637-3.184c-.942-4.713-3.317-6.816-7.695-6.816-2.885 0-4.261.62-5.845 2.635m19.497-.713c-2.591 2.864-3.193 9.478-1.147 12.602 3.264 4.981 10.04 5.217 12.597.438 1.737-3.245.305-3.605-2.462-.619-2.869 3.096-3.364 3.182-6.335 1.1C148.128 79.575 149.688 69 154.206 69c1.175 0 2.933.721 3.907 1.603 2.589 2.342 4.26 1.375 2.346-1.358-2.057-2.937-8.354-3.123-10.889-.323m26.001-.351c-1.912 1.912-2.033 4.801-.263 6.269.719.597 3.075 1.665 5.236 2.373 4.512 1.478 5.594 4.107 2.396 5.819-1.818.973-2.671.803-5.139-1.021-3.122-2.309-4.445-2.132-3.45.461 1.732 4.514 12.069 3.686 13.261-1.063.778-3.1-.814-4.998-5.442-6.488-5.157-1.66-6.476-2.847-5.06-4.554 1.506-1.815 5.335-1.741 6.89.133 1.584 1.909 3 1.925 3 .035 0-3.369-8.553-4.839-11.429-1.964m-70.505 2.305c-.586 1.096-1.066 3.812-1.066 6.035 0 3.209.516 4.381 2.5 5.681 2.286 1.498 2.707 1.502 4.913.057 5.354-3.508 3.89-12.876-2.104-13.457-2.35-.229-3.453.209-4.243 1.684M132.2 70.2c-.66.66-1.2 2.01-1.2 3 0 1.493.852 1.8 5 1.8 5.157 0 5.792-.652 3.965-4.066-1.173-2.192-5.864-2.635-7.765-.734m10.214 41.408c-2.247.797-5.728 2.954-7.735 4.792l-3.65 3.343-16.765.463c-19.989.551-24.548 1.98-31.701 9.936-7.883 8.767-9.169 17.292-5.514 36.557 1.911 10.072 7.695 33.663 10.064 41.051l1.042 3.25H117v-11h11v11.053l14.718-.276 14.718-.277 4.43-14.716 4.43-14.716 7.102-2.367 7.102-2.366.272-18.668.272-18.667h-5.803c-5.766 0-5.842-.039-11.732-5.991l-5.929-5.991 1.21-4.523c1.676-6.265 1.555-7.241-1.245-10.04-2.876-2.877-8.521-3.193-15.131-.847m-.831 12.454c-1.918 1.683-3.764 3.933-4.103 5-.58 1.829-1.697 1.938-19.852 1.938H98.392l-4.552 2.887c-5.296 3.358-8.842 9.65-8.837 15.679.005 5.78 2.48 18.94 6.76 35.934l3.777 15 5.73.3 5.73.3V190h30.895l.303 5.25.302 5.25 5.578.295 5.579.295 1.246-4.295c.686-2.362 2.572-8.649 4.192-13.97l2.945-9.675 6.48-2.157 6.48-2.156V149h-2.77c-2.166 0-4.81-2.049-12.129-9.398l-9.359-9.398.69-4.602c.852-5.676-.68-6.079-5.849-1.54M107 141.75V147h26v-10.5h-26v5.25m39 7.25c-3.437 3.437-1.738 8 2.978 8 5.165 0 7.183-5.533 3.191-8.75-2.187-1.762-3.86-1.559-6.169.75" fill="#1976D2" fill-rule="evenodd"/></svg>